<?xml version="1.0" encoding="utf-8"?>
<!-- Generator: Adobe Illustrator 26.5.0, SVG Export Plug-In . SVG Version: 6.00 Build 0)  -->
<svg version="1.1" id="Capa_1" xmlns="http://www.w3.org/2000/svg" xmlns:xlink="http://www.w3.org/1999/xlink" x="0px" y="0px"
	 viewBox="0 0 40 38.5" style="enable-background:new 0 0 40 38.5;" xml:space="preserve">
<style type="text/css">
	.st0{fill:#A41931;}
</style>
<g>
	<g>
		<g>
			<path class="st0" d="M35.8,15L20.1,5.7c-0.2-0.1-0.4-0.1-0.5,0L3.8,14.4c-0.2,0.1-0.3,0.3-0.3,0.5v22.7c0,0.3,0.2,0.5,0.5,0.5
				h2.7c0.3,0,0.5-0.2,0.5-0.5v-19h24.9v19c0,0.3,0.2,0.5,0.5,0.5h2.7c0.3,0,0.5-0.2,0.5-0.5V15.4C36.1,15.2,35.9,15.1,35.8,15z
				 M35,37.1h-1.6v-19c0-0.3-0.2-0.5-0.5-0.5h-26c-0.3,0-0.5,0.2-0.5,0.5v19H4.6V15.2l15.2-8.4L35,15.7L35,37.1L35,37.1z"/>
		</g>
	</g>
	<g>
		<g>
			<rect x="6.8" y="23.8" class="st0" width="26" height="1.1"/>
		</g>
	</g>
	<g>
		<g>
			<rect x="6.8" y="20.7" class="st0" width="26" height="1.1"/>
		</g>
	</g>
	<g>
		<g>
			<rect x="6.8" y="30.3" class="st0" width="26" height="1.1"/>
		</g>
	</g>
	<g>
		<g>
			<rect x="6.8" y="27.2" class="st0" width="26" height="1.1"/>
		</g>
	</g>
	<g>
		<g>
			<rect x="6.8" y="36.8" class="st0" width="26" height="1.1"/>
		</g>
	</g>
	<g>
		<g>
			<rect x="6.8" y="33.7" class="st0" width="26" height="1.1"/>
		</g>
	</g>
	<g>
		<g>
			<path class="st0" d="M22.5,13.3h-5.4c-0.3,0-0.5,0.2-0.5,0.5V16c0,0.3,0.2,0.5,0.5,0.5h5.4c0.3,0,0.5-0.2,0.5-0.5v-2.2
				C23.1,13.5,22.8,13.3,22.5,13.3z M22,15.4h-4.3v-1.1H22V15.4z"/>
		</g>
	</g>
</g>
</svg>
