<?xml version="1.0" encoding="utf-8"?>
<!-- Generator: Adobe Illustrator 26.5.0, SVG Export Plug-In . SVG Version: 6.00 Build 0)  -->
<svg version="1.1" id="Capa_1" xmlns="http://www.w3.org/2000/svg" xmlns:xlink="http://www.w3.org/1999/xlink" x="0px" y="0px"
	 viewBox="0 0 40 38.5" style="enable-background:new 0 0 40 38.5;" xml:space="preserve">
<style type="text/css">
	.st0{fill:#A41931;}
</style>
<g>
	<path class="st0" d="M33.1,25.9c-0.2,0-0.4-0.1-0.6-0.2c-0.4-0.4-0.8-0.7-1.2-1c-0.4-0.3-0.4-0.8-0.2-1.1c0.2-0.3,0.7-0.4,1.1-0.2
		c0.5,0.4,1,0.8,1.5,1.2c0.3,0.3,0.3,0.8,0,1.2C33.5,25.8,33.3,25.9,33.1,25.9L33.1,25.9z"/>
	<path class="st0" d="M35.4,38.4H4.4c-0.5,0-0.8-0.4-0.8-0.8v-6.8c0-5,4-9,9-9h14.7c0.5,0,0.8,0.4,0.8,0.8c0,0.5-0.4,0.8-0.8,0.8
		H12.5c-4,0-7.3,3.3-7.3,7.3v5.9h29.4v-5.9c0-0.6-0.1-1.1-0.2-1.7c-0.1-0.4,0.1-0.9,0.6-1c0.4-0.1,0.9,0.1,1,0.6c0,0,0,0,0,0
		c0.2,0.7,0.2,1.4,0.2,2.1v6.8C36.2,38,35.9,38.4,35.4,38.4z"/>
	<path class="st0" d="M19.9,18.7c-4.7,0-8.6-3.8-8.6-8.6s3.8-8.6,8.6-8.6s8.6,3.8,8.6,8.6l0,0C28.5,14.9,24.6,18.7,19.9,18.7z
		 M19.9,3.2c-3.8,0-6.9,3.1-6.9,6.9s3.1,6.9,6.9,6.9s6.9-3.1,6.9-6.9l0,0C26.8,6.3,23.7,3.2,19.9,3.2z"/>
	<path class="st0" d="M27.9,38.4h-16c-0.5,0-0.8-0.4-0.8-0.8v-4.7c0-0.5,0.4-0.8,0.8-0.8s0.8,0.4,0.8,0.8v3.9H27v-3.9
		c0-0.5,0.4-0.8,0.8-0.8c0.5,0,0.8,0.4,0.8,0.8v4.7C28.7,38,28.3,38.4,27.9,38.4z"/>
</g>
</svg>
