<?xml version="1.0" encoding="utf-8"?>
<!-- Generator: Adobe Illustrator 26.5.0, SVG Export Plug-In . SVG Version: 6.00 Build 0)  -->
<svg version="1.1" id="Capa_1" xmlns="http://www.w3.org/2000/svg" xmlns:xlink="http://www.w3.org/1999/xlink" x="0px" y="0px"
	 viewBox="0 0 40 38.5" style="enable-background:new 0 0 40 38.5;" xml:space="preserve">
<style type="text/css">
	.st0{fill:#A41931;}
</style>
<g>
	<path class="st0" d="M19.8,8.6c0.4,0,0.7-0.3,0.7-0.7V5c0-0.4-0.3-0.7-0.7-0.7c-0.4,0-0.7,0.3-0.7,0.7v3
		C19.1,8.3,19.4,8.6,19.8,8.6L19.8,8.6z"/>
	<path class="st0" d="M36.2,27.4L35,26.2c-0.4-0.4-1-0.7-1.6-0.7c-0.4,0-0.8,0.1-1.1,0.3l-2.2-2.2l0.1-0.1c0.9-0.9,0.9-2.4,0-3.3
		c-0.3-0.3-0.7-0.5-1.2-0.6c0.1-0.2,0.1-0.4,0.1-0.7c0-0.6-0.2-1.2-0.7-1.6c-0.3-0.3-0.7-0.5-1.2-0.6c0.1-0.2,0.1-0.4,0.1-0.7
		c0-0.6-0.2-1.2-0.7-1.6c-0.3-0.3-0.7-0.5-1.2-0.6c0.2-0.8,0-1.7-0.6-2.3c-0.5-0.5-1.2-0.7-1.9-0.7l-4.4-0.8
		c-0.7-0.1-1.5-0.2-2.1,0.3c0,0-0.1,0.1-0.1,0.1c-0.8-0.3-1.8-0.1-2.4,0.5c-0.4,0.4-0.7,1-0.7,1.6c0,0.2,0,0.4,0.1,0.7
		c-0.4,0.1-0.8,0.3-1.2,0.6c-0.4,0.4-0.7,1-0.7,1.6c0,0.2,0,0.4,0.1,0.7c-0.4,0.1-0.8,0.3-1.2,0.6c-0.4,0.4-0.7,1-0.7,1.6
		c0,0.5,0.1,0.9,0.4,1.3c-0.3,0.1-0.6,0.3-0.9,0.6c-0.9,0.9-0.9,2.4,0,3.3l0.1,0.1l-2.2,2.2c-0.8-0.4-1.9-0.2-2.5,0.4l-1.2,1.2
		c-0.4,0.4-0.7,1-0.7,1.6c0,0.6,0.2,1.2,0.7,1.6L5,32.1c0.3,0.3,0.7,0.3,0.9,0c0.3-0.3,0.3-0.7,0-0.9l-1.5-1.5
		c-0.2-0.2-0.3-0.4-0.3-0.6c0-0.2,0.1-0.5,0.3-0.6l1.2-1.2c0.3-0.3,0.8-0.3,1.1-0.1c0,0,0.1,0.1,0.1,0.1c0.1,0.1,0.1,0.1,0.2,0.1
		l6.8,6.8c0,0.1,0.1,0.1,0.1,0.2c0.1,0.1,0.1,0.1,0.2,0.1c0.1,0.2,0.2,0.4,0.2,0.6c0,0.2-0.1,0.5-0.3,0.6l-1.2,1.2
		c-0.4,0.3-0.9,0.3-1.3,0l-1.5-1.5c-0.3-0.3-0.7-0.3-0.9,0S9,36,9.2,36.3l1.5,1.5c0.4,0.4,1,0.7,1.6,0.7c0.6,0,1.1-0.2,1.6-0.7
		l1.2-1.2c0.4-0.4,0.7-1,0.7-1.6c0-0.4-0.1-0.8-0.3-1.2l2.5-2.5c0,0,0,0,0,0c0.3-0.3,1.1-0.2,1.9-0.2c0.6,0,1.2,0.1,1.8,0l2.8,2.8
		C24.1,34.2,24,34.6,24,35c0,0.6,0.2,1.2,0.7,1.6l1.2,1.2c0.4,0.4,1,0.7,1.6,0.7c0.6,0,1.2-0.2,1.6-0.7l7.2-7.2
		c0.4-0.4,0.7-1,0.7-1.6C36.9,28.4,36.6,27.8,36.2,27.4L36.2,27.4z M18.4,11.2l2.9,0.6l-1.7,1.7c-0.3-0.1-0.6-0.4-1-0.8
		c-0.6-0.5-1-1.1-1-1.5c0,0,0,0,0,0c0,0,0,0,0,0c0,0,0,0,0-0.1C17.6,11.1,17.8,11.1,18.4,11.2L18.4,11.2z M15,11.7
		c0.3-0.3,0.9-0.4,1.3-0.1c0.2,0.9,1,1.7,1.3,2.1c0.3,0.2,1.1,1,1.9,1.2c0.1,0.2,0.2,0.4,0.2,0.6c0,0.3-0.1,0.5-0.3,0.7
		c-0.2,0.2-0.4,0.3-0.7,0.3c-0.3,0-0.5-0.1-0.7-0.3l0,0l0,0l-3-3c-0.2-0.2-0.3-0.4-0.3-0.7C14.7,12.2,14.8,11.9,15,11.7L15,11.7z
		 M13.2,14.7c0.2-0.2,0.4-0.3,0.7-0.3c0.3,0,0.5,0.1,0.7,0.3l2.4,2.4c0.4,0.4,0.4,1,0,1.4c-0.2,0.2-0.4,0.3-0.7,0.3
		c-0.3,0-0.5-0.1-0.7-0.3l0,0l-1.8-1.8c0,0,0,0,0,0l-0.6-0.6c-0.2-0.2-0.3-0.4-0.3-0.7C12.9,15.1,13,14.9,13.2,14.7L13.2,14.7z
		 M11.5,17.6c0.2-0.2,0.4-0.3,0.7-0.3c0.3,0,0.5,0.1,0.7,0.3l1.9,1.9c0.2,0.2,0.3,0.4,0.3,0.7c0,0.3-0.1,0.5-0.3,0.7
		c-0.2,0.2-0.4,0.3-0.7,0.3c-0.3,0-0.5-0.1-0.7-0.3l-0.7-0.7c0,0,0,0,0,0L11.5,19c-0.2-0.2-0.3-0.4-0.3-0.7
		C11.2,18,11.3,17.8,11.5,17.6L11.5,17.6z M10.3,21.1c0.2-0.2,0.4-0.3,0.7-0.3c0.3,0,0.5,0.1,0.7,0.3l0.7,0.7
		c0.2,0.2,0.3,0.4,0.3,0.7s-0.1,0.5-0.3,0.7c-0.2,0.2-0.4,0.3-0.7,0.3c-0.3,0-0.5-0.1-0.7-0.3l-0.1-0.1c0,0,0,0,0,0c0,0,0,0,0,0
		l-0.6-0.6C9.9,22.1,9.9,21.5,10.3,21.1L10.3,21.1z M24,28.8c-0.3-0.3-0.7-0.3-0.9,0l-0.6,0.6c-0.6,0.6-1.6,0.5-2.6,0.4
		c-1.1-0.1-2.2-0.2-2.9,0.6l-2.5,2.5l-6.2-6.2l2.2-2.2c0.4,0.2,0.8,0.3,1.2,0.3c0.6,0,1.2-0.2,1.6-0.7c0.4-0.4,0.7-1,0.7-1.6
		c0,0,0,0,0,0c0,0,0,0,0,0c0.6,0,1.2-0.2,1.6-0.7c0.4-0.4,0.7-1,0.7-1.6c0,0,0,0,0,0c0,0,0,0,0,0c0.6,0,1.2-0.2,1.6-0.7
		c0.5-0.5,0.7-1.1,0.7-1.7c0,0,0,0,0,0c0.6,0,1.2-0.2,1.6-0.7c0.4-0.4,0.7-1,0.7-1.6c0-0.4-0.1-0.9-0.3-1.2l1.9-1.9
		c0.1-0.1,0.3-0.2,0.5-0.3c0,0,0,0,0.1,0c0.3,0,0.6,0.1,0.8,0.3c0.4,0.4,0.4,1,0,1.4l-0.6,0.6c0,0,0,0,0,0L22.8,15
		c-0.3,0.3-0.3,0.7,0,0.9c0.3,0.3,0.7,0.3,0.9,0l0.6-0.6c0,0,0,0,0,0l0.1-0.1c0.4-0.4,1-0.4,1.4,0c0.2,0.2,0.3,0.4,0.3,0.7
		c0,0.3-0.1,0.5-0.3,0.7l-0.6,0.6c0,0,0,0,0,0l-0.7,0.7c-0.3,0.3-0.3,0.7,0,0.9c0.3,0.3,0.7,0.3,0.9,0l0.7-0.7
		c0.2-0.2,0.4-0.3,0.7-0.3c0.3,0,0.5,0.1,0.7,0.3c0.2,0.2,0.3,0.4,0.3,0.7c0,0.3-0.1,0.5-0.3,0.7l-1.2,1.2c-0.3,0.3-0.3,0.7,0,0.9
		c0.1,0.1,0.3,0.2,0.5,0.2c0.2,0,0.3-0.1,0.5-0.2l0.6-0.6c0,0,0,0,0,0c0.2-0.2,0.4-0.3,0.7-0.3c0.3,0,0.5,0.1,0.7,0.3
		c0.4,0.4,0.4,1,0,1.4l-0.6,0.6c0,0,0,0,0,0c0,0,0,0,0,0L27.8,24c-0.3,0.3-0.3,0.7,0,0.9c0.1,0.1,0.3,0.2,0.5,0.2
		c0.2,0,0.3-0.1,0.5-0.2l0.5-0.5l2.2,2.2l-6.2,6.2l-2.2-2.2c0.2-0.1,0.3-0.2,0.4-0.4l0.6-0.6C24.2,29.4,24.2,29,24,28.8L24,28.8z
		 M35.3,29.6l-7.2,7.2c-0.2,0.2-0.4,0.3-0.6,0.3c-0.2,0-0.5-0.1-0.6-0.3l-1.2-1.2c-0.2-0.2-0.3-0.4-0.3-0.6c0-0.2,0.1-0.5,0.3-0.6
		l7.2-7.2c0.2-0.2,0.4-0.3,0.6-0.3c0.2,0,0.5,0.1,0.6,0.3l1.2,1.2c0.2,0.2,0.3,0.4,0.3,0.6C35.5,29.2,35.4,29.4,35.3,29.6z"/>
	<path class="st0" d="M10.9,8.1c0.1,0.1,0.3,0.2,0.5,0.2c0.2,0,0.3-0.1,0.5-0.2c0.3-0.3,0.3-0.7,0-0.9L9.4,4.7
		c-0.3-0.3-0.7-0.3-0.9,0c-0.3,0.3-0.3,0.7,0,0.9L10.9,8.1z"/>
	<path class="st0" d="M28.2,8.3c0.2,0,0.3-0.1,0.5-0.2l2.4-2.4c0.3-0.3,0.3-0.7,0-0.9c-0.3-0.3-0.7-0.3-0.9,0l-2.4,2.4
		c-0.3,0.3-0.3,0.7,0,0.9C27.9,8.2,28.1,8.3,28.2,8.3z"/>
	<path class="st0" d="M7,33.2c-0.3,0.3-0.3,0.7,0,0.9l0,0c0.1,0.1,0.3,0.2,0.5,0.2c0.2,0,0.3-0.1,0.5-0.2c0.3-0.3,0.3-0.7,0-1
		C7.7,32.9,7.2,32.9,7,33.2z"/>
	<path class="st0" d="M25.6,27.8c0.1,0,0.2,0,0.3-0.1c0.3-0.2,0.5-0.6,0.3-0.9c-0.2-0.3-0.6-0.5-0.9-0.3l0,0
		c-0.3,0.2-0.5,0.6-0.3,0.9C25.1,27.7,25.4,27.8,25.6,27.8L25.6,27.8z"/>
</g>
</svg>
