<?xml version="1.0" encoding="utf-8"?>
<!-- Generator: Adobe Illustrator 26.5.0, SVG Export Plug-In . SVG Version: 6.00 Build 0)  -->
<svg version="1.1" id="Capa_1" xmlns="http://www.w3.org/2000/svg" xmlns:xlink="http://www.w3.org/1999/xlink" x="0px" y="0px"
	 viewBox="0 0 40 38.5" style="enable-background:new 0 0 40 38.5;" xml:space="preserve">
<style type="text/css">
	.st0{fill:none;stroke:#A41931;stroke-width:1.4979;stroke-linecap:round;stroke-linejoin:round;stroke-miterlimit:10;}
</style>
<path class="st0" d="M14.8,14.7l2.9-6c0.9-1.8,3.4-1.8,4.3,0l3,5.9c0.4,0.7,1,1.2,1.8,1.3l6.6,0.9c2,0.3,2.8,2.7,1.4,4.1l-4.7,4.7
	c-0.6,0.6-0.8,1.4-0.7,2.1l1.2,6.5c0.4,2-1.7,3.5-3.5,2.6l-5.9-3c-0.7-0.4-1.5-0.4-2.2,0L13.2,37c-1.8,0.9-3.9-0.5-3.5-2.5l1.1-6.6
	c0.1-0.8-0.1-1.6-0.7-2.1l-4.8-4.6c-1.4-1.4-0.7-3.8,1.3-4.1l6.6-1C13.8,15.9,14.5,15.4,14.8,14.7z"/>
</svg>
