<?xml version="1.0" encoding="utf-8"?>
<!-- Generator: Adobe Illustrator 23.0.1, SVG Export Plug-In . SVG Version: 6.00 Build 0)  -->
<svg version="1.1" id="Capa_1" xmlns="http://www.w3.org/2000/svg" xmlns:xlink="http://www.w3.org/1999/xlink" x="0px" y="0px"
	 viewBox="0 0 80 80" style="enable-background:new 0 0 80 80;" xml:space="preserve">
<style type="text/css">
	.st0{opacity:0;fill:#FFFFFF;}
	.st1{opacity:6.622517e-03;fill:#FEFEFE;}
	.st2{opacity:1.324503e-02;fill:#FEFEFE;}
	.st3{opacity:1.986755e-02;fill:#FDFDFD;}
	.st4{opacity:2.649007e-02;fill:#FDFDFD;}
	.st5{opacity:3.311258e-02;fill:#FCFCFC;}
	.st6{opacity:3.973510e-02;fill:#FBFBFC;}
	.st7{opacity:4.635762e-02;fill:#FBFBFB;}
	.st8{opacity:5.298013e-02;fill:#FAFAFA;}
	.st9{opacity:5.960265e-02;fill:#FAFAFA;}
	.st10{opacity:6.622516e-02;fill:#F9F9F9;}
	.st11{opacity:7.284768e-02;fill:#F8F9F9;}
	.st12{opacity:7.947020e-02;fill:#F8F8F8;}
	.st13{opacity:8.609272e-02;fill:#F7F7F8;}
	.st14{opacity:9.271523e-02;fill:#F7F7F7;}
	.st15{opacity:9.933775e-02;fill:#F6F6F6;}
	.st16{opacity:0.106;fill:#F5F6F6;}
	.st17{opacity:0.1126;fill:#F5F5F5;}
	.st18{opacity:0.1192;fill:#F4F4F5;}
	.st19{opacity:0.1258;fill:#F4F4F4;}
	.st20{opacity:0.1325;fill:#F3F3F4;}
	.st21{opacity:0.1391;fill:#F2F3F3;}
	.st22{opacity:0.1457;fill:#F2F2F3;}
	.st23{opacity:0.1523;fill:#F1F2F2;}
	.st24{opacity:0.1589;fill:#F1F1F1;}
	.st25{opacity:0.1656;fill:#F0F0F1;}
	.st26{opacity:0.1722;fill:#EFF0F0;}
	.st27{opacity:0.1788;fill:#EFEFF0;}
	.st28{opacity:0.1854;fill:#EEEFEF;}
	.st29{opacity:0.1921;fill:#EEEEEF;}
	.st30{opacity:0.1987;fill:#EDEDEE;}
	.st31{opacity:0.2053;fill:#ECEDED;}
	.st32{opacity:0.2119;fill:#ECECED;}
	.st33{opacity:0.2185;fill:#EBECEC;}
	.st34{opacity:0.2252;fill:#EBEBEC;}
	.st35{opacity:0.2318;fill:#EAEBEB;}
	.st36{opacity:0.2384;fill:#E9EAEB;}
	.st37{opacity:0.245;fill:#E9E9EA;}
	.st38{opacity:0.2517;fill:#E8E9E9;}
	.st39{opacity:0.2583;fill:#E8E8E9;}
	.st40{opacity:0.2649;fill:#E7E8E8;}
	.st41{opacity:0.2715;fill:#E6E7E8;}
	.st42{opacity:0.2781;fill:#E6E6E7;}
	.st43{opacity:0.2848;fill:#E5E6E7;}
	.st44{opacity:0.2914;fill:#E5E5E6;}
	.st45{opacity:0.298;fill:#E4E5E5;}
	.st46{opacity:0.3046;fill:#E3E4E5;}
	.st47{opacity:0.3113;fill:#E3E4E4;}
	.st48{opacity:0.3179;fill:#E2E3E4;}
	.st49{opacity:0.3245;fill:#E2E2E3;}
	.st50{opacity:0.3311;fill:#E1E2E3;}
	.st51{opacity:0.3377;fill:#E1E1E2;}
	.st52{opacity:0.3444;fill:#E0E1E2;}
	.st53{opacity:0.351;fill:#DFE0E1;}
	.st54{opacity:0.3576;fill:#DFDFE0;}
	.st55{opacity:0.3642;fill:#DEDFE0;}
	.st56{opacity:0.3709;fill:#DEDEDF;}
	.st57{opacity:0.3775;fill:#DDDEDF;}
	.st58{opacity:0.3841;fill:#DCDDDE;}
	.st59{opacity:0.3907;fill:#DCDCDE;}
	.st60{opacity:0.3974;fill:#DBDCDD;}
	.st61{opacity:0.404;fill:#DBDBDC;}
	.st62{opacity:0.4106;fill:#DADBDC;}
	.st63{opacity:0.4172;fill:#D9DADB;}
	.st64{opacity:0.4238;fill:#D9DADB;}
	.st65{opacity:0.4305;fill:#D8D9DA;}
	.st66{opacity:0.4371;fill:#D8D8DA;}
	.st67{opacity:0.4437;fill:#D7D8D9;}
	.st68{opacity:0.4503;fill:#D6D7D8;}
	.st69{opacity:0.457;fill:#D6D7D8;}
	.st70{opacity:0.4636;fill:#D5D6D7;}
	.st71{opacity:0.4702;fill:#D5D5D7;}
	.st72{opacity:0.4768;fill:#D4D5D6;}
	.st73{opacity:0.4834;fill:#D3D4D6;}
	.st74{opacity:0.4901;fill:#D3D4D5;}
	.st75{opacity:0.4967;fill:#D2D3D4;}
	.st76{opacity:0.5033;fill:#D2D3D4;}
	.st77{opacity:0.5099;fill:#D1D2D3;}
	.st78{opacity:0.5166;fill:#D0D1D3;}
	.st79{opacity:0.5232;fill:#D0D1D2;}
	.st80{opacity:0.5298;fill:#CFD0D2;}
	.st81{opacity:0.5364;fill:#CFD0D1;}
	.st82{opacity:0.543;fill:#CECFD1;}
	.st83{opacity:0.5497;fill:#CDCED0;}
	.st84{opacity:0.5563;fill:#CDCECF;}
	.st85{opacity:0.5629;fill:#CCCDCF;}
	.st86{opacity:0.5695;fill:#CCCDCE;}
	.st87{opacity:0.5762;fill:#CBCCCE;}
	.st88{opacity:0.5828;fill:#CACCCD;}
	.st89{opacity:0.5894;fill:#CACBCD;}
	.st90{opacity:0.596;fill:#C9CACC;}
	.st91{opacity:0.6026;fill:#C9CACB;}
	.st92{opacity:0.6093;fill:#C8C9CB;}
	.st93{opacity:0.6159;fill:#C7C9CA;}
	.st94{opacity:0.6225;fill:#C7C8CA;}
	.st95{opacity:0.6291;fill:#C6C7C9;}
	.st96{opacity:0.6358;fill:#C6C7C9;}
	.st97{opacity:0.6424;fill:#C5C6C8;}
	.st98{opacity:0.649;fill:#C4C6C7;}
	.st99{opacity:0.6556;fill:#C4C5C7;}
	.st100{opacity:0.6623;fill:#C3C4C6;}
	.st101{opacity:0.6689;fill:#C3C4C6;}
	.st102{opacity:0.6755;fill:#C2C3C5;}
	.st103{opacity:0.6821;fill:#C1C3C5;}
	.st104{opacity:0.6887;fill:#C1C2C4;}
	.st105{opacity:0.6954;fill:#C0C2C3;}
	.st106{opacity:0.702;fill:#C0C1C3;}
	.st107{opacity:0.7086;fill:#BFC0C2;}
	.st108{opacity:0.7152;fill:#BEC0C2;}
	.st109{opacity:0.7219;fill:#BEBFC1;}
	.st110{opacity:0.7285;fill:#BDBFC1;}
	.st111{opacity:0.7351;fill:#BDBEC0;}
	.st112{opacity:0.7417;fill:#BCBDBF;}
	.st113{opacity:0.7483;fill:#BBBDBF;}
	.st114{opacity:0.755;fill:#BBBCBE;}
	.st115{opacity:0.7616;fill:#BABCBE;}
	.st116{opacity:0.7682;fill:#BABBBD;}
	.st117{opacity:0.7748;fill:#B9BBBD;}
	.st118{opacity:0.7815;fill:#B8BABC;}
	.st119{opacity:0.7881;fill:#B8B9BC;}
	.st120{opacity:0.7947;fill:#B7B9BB;}
	.st121{opacity:0.8013;fill:#B7B8BA;}
	.st122{opacity:0.8079;fill:#B6B8BA;}
	.st123{opacity:0.8146;fill:#B5B7B9;}
	.st124{opacity:0.8212;fill:#B5B6B9;}
	.st125{opacity:0.8278;fill:#B4B6B8;}
	.st126{opacity:0.8344;fill:#B4B5B8;}
	.st127{opacity:0.8411;fill:#B3B5B7;}
	.st128{opacity:0.8477;fill:#B2B4B6;}
	.st129{opacity:0.8543;fill:#B2B4B6;}
	.st130{opacity:0.8609;fill:#B1B3B5;}
	.st131{opacity:0.8675;fill:#B1B2B5;}
	.st132{opacity:0.8742;fill:#B0B2B4;}
	.st133{opacity:0.8808;fill:#AFB1B4;}
	.st134{opacity:0.8874;fill:#AFB1B3;}
	.st135{opacity:0.894;fill:#AEB0B2;}
	.st136{opacity:0.9007;fill:#AEAFB2;}
	.st137{opacity:0.9073;fill:#ADAFB1;}
	.st138{opacity:0.9139;fill:#ACAEB1;}
	.st139{opacity:0.9205;fill:#ACAEB0;}
	.st140{opacity:0.9272;fill:#ABADB0;}
	.st141{opacity:0.9338;fill:#ABADAF;}
	.st142{opacity:0.9404;fill:#AAACAE;}
	.st143{opacity:0.947;fill:#A9ABAE;}
	.st144{opacity:0.9536;fill:#A9ABAD;}
	.st145{opacity:0.9603;fill:#A8AAAD;}
	.st146{opacity:0.9669;fill:#A8AAAC;}
	.st147{opacity:0.9735;fill:#A7A9AC;}
	.st148{opacity:0.9801;fill:#A7A8AB;}
	.st149{opacity:0.9868;fill:#A6A8AB;}
	.st150{opacity:0.9934;fill:#A5A7AA;}
	.st151{fill:#A5A7A9;}
	.st152{fill:url(#SVGID_1_);}
	.st153{fill:none;stroke:#000000;stroke-width:0.7874;stroke-linecap:round;stroke-linejoin:round;stroke-miterlimit:10;}
</style>
<g>
	<g>
		<path class="st0" d="M1.1,64.8c0,12.8-2,14.1,16.5,14.1c0,0,34.3,0,34.3,0c18.5,0,16.3-1.3,16.3-14.1L1.1,64.8z"/>
		<path class="st1" d="M1.1,64.6c0,12.9-2,14.2,16.5,14.2c0,0,34.3,0,34.3,0c18.5,0,16.3-1.4,16.3-14.2L1.1,64.6z"/>
		<path class="st2" d="M1.1,64.4c0,12.9-1.9,14.3,16.4,14.3c0,0,34.3,0,34.3,0c18.5,0,16.3-1.5,16.3-14.3L1.1,64.4z"/>
		<path class="st3" d="M1.1,64.3c0,13-1.9,14.4,16.4,14.4c0,0,34.3,0,34.3,0c18.5,0,16.3-1.6,16.3-14.4L1.1,64.3z"/>
		<path class="st4" d="M1.2,64.1c0,13-1.9,14.5,16.4,14.5c0,0,34.3,0,34.4,0c18.5,0,16.2-1.7,16.3-14.5L1.2,64.1z"/>
		<path class="st5" d="M1.2,64c0,13.1-1.8,14.6,16.4,14.6c0,0,34.3,0,34.4,0c18.5,0,16.2-1.8,16.3-14.6L1.2,64z"/>
		<path class="st6" d="M1.2,63.8c0,13.1-1.8,14.7,16.4,14.7c0,0,34.3,0,34.4,0c18.6,0,16.2-1.9,16.3-14.7L1.2,63.8z"/>
		<path class="st7" d="M1.2,63.7c0,13.2-1.8,14.8,16.3,14.8c0,0,34.3,0,34.4,0c18.6,0,16.2-2.1,16.3-14.8L1.2,63.7z"/>
		<path class="st8" d="M1.2,63.5c0,13.2-1.7,14.9,16.3,14.9c0,0,34.3,0,34.4,0c18.6,0,16.2-2.2,16.3-14.9L1.2,63.5z"/>
		<path class="st9" d="M1.2,63.3c0,13.3-1.7,15,16.3,15c0,0,34.4,0,34.4,0c18.6,0,16.2-2.3,16.3-15L1.2,63.3z"/>
		<path class="st10" d="M1.2,63.2c0,13.3-1.7,15,16.3,15c0,0,34.4,0,34.4,0c18.6,0,16.2-2.4,16.3-15L1.2,63.2z"/>
		<path class="st11" d="M1.2,63c0,13.4-1.6,15.1,16.2,15.1c0,0,34.4,0,34.4,0c18.6,0,16.2-2.5,16.3-15.1L1.2,63z"/>
		<path class="st12" d="M1.2,62.9c0,13.4-1.6,15.2,16.2,15.2c0,0,34.4,0,34.4,0c18.6,0,16.2-2.6,16.2-15.2L1.2,62.9z"/>
		<path class="st13" d="M1.3,62.7C1.3,76.2-0.3,78,17.5,78c0,0,34.4,0,34.4,0c18.7,0,16.2-2.7,16.2-15.3L1.3,62.7z"/>
		<path class="st14" d="M1.3,62.6C1.3,76.1-0.3,78,17.5,78c0,0,34.4,0,34.4,0c18.7,0,16.2-2.8,16.2-15.4L1.3,62.6z"/>
		<path class="st15" d="M1.3,62.4c0,13.6-1.5,15.5,16.2,15.5c0,0,34.4,0,34.4,0c18.7,0,16.2-2.9,16.2-15.5L1.3,62.4z"/>
		<path class="st16" d="M1.3,62.2c0,13.6-1.5,15.6,16.1,15.6c0,0,34.4,0,34.4,0c18.7,0,16.2-3,16.2-15.6L1.3,62.2z"/>
		<path class="st17" d="M1.3,62.1c0,13.7-1.4,15.7,16.1,15.7c0,0,34.4,0,34.4,0c18.7,0,16.2-3.1,16.2-15.7L1.3,62.1z"/>
		<path class="st18" d="M1.3,61.9c0,13.7-1.4,15.8,16.1,15.8c0,0,34.4,0,34.4,0c18.7,0,16.2-3.3,16.2-15.8L1.3,61.9z"/>
		<path class="st19" d="M1.3,61.8c0,13.8-1.4,15.9,16.1,15.9c0,0,34.4,0,34.4,0c18.7,0,16.2-3.4,16.2-15.9L1.3,61.8z"/>
		<path class="st20" d="M1.3,61.6c0,13.8-1.4,16,16.1,16c0,0,34.4,0,34.4,0c18.7,0,16.2-3.5,16.2-16L1.3,61.6z"/>
		<path class="st21" d="M1.3,61.5c0,13.9-1.3,16,16,16c0,0,34.4,0,34.4,0c18.8,0,16.2-3.6,16.2-16L1.3,61.5z"/>
		<path class="st22" d="M1.4,61.3c0,13.9-1.3,16.1,16,16.1c0,0,34.4,0,34.4,0c18.8,0,16.2-3.7,16.2-16.1L1.4,61.3z"/>
		<path class="st23" d="M1.4,61.2c0,14-1.3,16.2,16,16.2c0,0,34.4,0,34.4,0c18.8,0,16.2-3.8,16.2-16.2L1.4,61.2z"/>
		<path class="st24" d="M1.4,61c0,14-1.2,16.3,16,16.3c0,0,34.4,0,34.4,0c18.8,0,16.2-3.9,16.2-16.3L1.4,61z"/>
		<path class="st25" d="M1.4,60.8c0,14.1-1.2,16.4,16,16.4c0,0,34.4,0,34.4,0c18.8,0,16.2-4,16.2-16.4L1.4,60.8z"/>
		<path class="st26" d="M1.4,60.7c0,14.1-1.2,16.5,15.9,16.5c0,0,34.4,0,34.4,0c18.8,0,16.1-4.1,16.2-16.5L1.4,60.7z"/>
		<path class="st27" d="M1.4,60.5c0,14.2-1.1,16.6,15.9,16.6c0,0,34.4,0,34.4,0c18.8,0,16.1-4.2,16.2-16.6L1.4,60.5z"/>
		<path class="st28" d="M1.4,60.4C1.5,74.6,0.3,77,17.3,77c0,0,34.4,0,34.4,0c18.8,0,16.1-4.4,16.2-16.7L1.4,60.4z"/>
		<path class="st29" d="M1.4,60.2C1.5,74.5,0.4,77,17.3,77c0,0,34.4,0,34.4,0c18.9,0,16.1-4.5,16.2-16.8L1.4,60.2z"/>
		<path class="st30" d="M1.4,60.1c0,14.3-1,16.9,15.8,16.9c0,0,34.4,0,34.4,0c18.9,0,16.1-4.6,16.2-16.9L1.4,60.1z"/>
		<path class="st31" d="M1.5,59.9c0,14.4-1,16.9,15.8,16.9c0,0,34.4,0,34.4,0c18.9,0,16.1-4.7,16.2-16.9L1.5,59.9z"/>
		<path class="st32" d="M1.5,59.7c0,14.4-1,17,15.8,17c0,0,34.4,0,34.4,0c18.9,0,16.1-4.8,16.2-17L1.5,59.7z"/>
		<path class="st33" d="M1.5,59.6c0,14.5-0.9,17.1,15.8,17.1c0,0,34.4,0,34.4,0c18.9,0,16.1-4.9,16.1-17.1L1.5,59.6z"/>
		<path class="st34" d="M1.5,59.4c0,14.5-0.9,17.2,15.8,17.2c0,0,34.4,0,34.4,0c18.9,0,16.1-5,16.1-17.2L1.5,59.4z"/>
		<path class="st35" d="M1.5,59.3c0,14.6-0.9,17.3,15.7,17.3c0,0,34.4,0,34.4,0c18.9,0,16.1-5.1,16.1-17.3L1.5,59.3z"/>
		<path class="st36" d="M1.5,59.1c0,14.6-0.8,17.4,15.7,17.4c0,0,34.4,0,34.4,0c18.9,0,16.1-5.2,16.1-17.4L1.5,59.1z"/>
		<path class="st37" d="M1.5,59c0,14.7-0.8,17.5,15.7,17.5c0,0,34.4,0,34.4,0c19,0,16.1-5.3,16.1-17.5L1.5,59z"/>
		<path class="st38" d="M1.5,58.8c0,14.7-0.8,17.6,15.7,17.6c0,0,34.4,0,34.4,0c19,0,16.1-5.4,16.1-17.6L1.5,58.8z"/>
		<path class="st39" d="M1.5,58.6c0,14.8-0.7,17.7,15.7,17.7c0,0,34.4,0,34.4,0c19,0,16.1-5.6,16.1-17.7L1.5,58.6z"/>
		<path class="st40" d="M1.6,58.5c0,14.8-0.7,17.8,15.6,17.8c0,0,34.4,0,34.4,0c19,0,16.1-5.7,16.1-17.8L1.6,58.5z"/>
		<path class="st41" d="M1.6,58.3c0,14.9-0.7,17.9,15.6,17.9c0,0,34.4,0,34.4,0c19,0,16.1-5.8,16.1-17.9L1.6,58.3z"/>
		<path class="st42" d="M1.6,58.2c0,14.9-0.6,17.9,15.6,17.9c0,0,34.4,0,34.4,0c19,0,16.1-5.9,16.1-17.9L1.6,58.2z"/>
		<path class="st43" d="M1.6,58c0,15-0.6,18,15.6,18c0,0,34.4,0,34.4,0c19,0,16.1-6,16.1-18L1.6,58z"/>
		<path class="st44" d="M1.6,57.9C1.6,72.9,1,76,17.2,76c0,0,34.4,0,34.4,0c19,0,16.1-6.1,16.1-18.1L1.6,57.9z"/>
		<path class="st45" d="M1.6,57.7c0,15.1-0.6,18.2,15.5,18.2c0,0,34.4,0,34.5,0c19.1,0,16.1-6.2,16.1-18.2L1.6,57.7z"/>
		<path class="st46" d="M1.6,57.5c0,15.1-0.5,18.3,15.5,18.3c0,0,34.4,0,34.5,0c19.1,0,16.1-6.3,16.1-18.3L1.6,57.5z"/>
		<path class="st47" d="M1.6,57.4c0,15.2-0.5,18.4,15.5,18.4c0,0,34.4,0,34.5,0c19.1,0,16.1-6.4,16.1-18.4L1.6,57.4z"/>
		<path class="st48" d="M1.6,57.2c0,15.2-0.5,18.5,15.5,18.5c0,0,34.4,0,34.5,0c19.1,0,16.1-6.5,16.1-18.5L1.6,57.2z"/>
		<path class="st49" d="M1.7,57.1c0,15.3-0.4,18.6,15.4,18.6c0,0,34.4,0,34.5,0c19.1,0,16-6.6,16.1-18.6L1.7,57.1z"/>
		<path class="st50" d="M1.7,56.9c0,15.3-0.4,18.7,15.4,18.7c0,0,34.4,0,34.5,0c19.1,0,16-6.8,16.1-18.7L1.7,56.9z"/>
		<path class="st51" d="M1.7,56.8c0,15.3-0.4,18.8,15.4,18.8c0,0,34.4,0,34.5,0c19.1,0,16-6.9,16.1-18.8L1.7,56.8z"/>
		<path class="st52" d="M1.7,56.6c0,15.4-0.3,18.9,15.4,18.9c0,0,34.4,0,34.5,0c19.2,0,16-7,16.1-18.9L1.7,56.6z"/>
		<path class="st53" d="M1.7,56.4c0,15.4-0.3,18.9,15.4,18.9c0,0,34.4,0,34.5,0c19.2,0,16-7.1,16.1-18.9L1.7,56.4z"/>
		<path class="st54" d="M1.7,56.3c0,15.5-0.3,19,15.3,19c0,0,34.4,0,34.5,0c19.2,0,16-7.2,16-19L1.7,56.3z"/>
		<path class="st55" d="M1.7,56.1c0,15.5-0.2,19.1,15.3,19.1c0,0,34.5,0,34.5,0c19.2,0,16-7.3,16-19.1L1.7,56.1z"/>
		<path class="st56" d="M1.7,56c0,15.6-0.2,19.2,15.3,19.2c0,0,34.5,0,34.5,0c19.2,0,16-7.4,16-19.2L1.7,56z"/>
		<path class="st57" d="M1.8,55.8c0,15.6-0.2,19.3,15.3,19.3c0,0,34.5,0,34.5,0c19.2,0,16-7.5,16-19.3L1.8,55.8z"/>
		<path class="st58" d="M1.8,55.7c0,15.7-0.1,19.4,15.2,19.4c0,0,34.5,0,34.5,0c19.2,0,16-7.6,16-19.4L1.8,55.7z"/>
		<path class="st59" d="M1.8,55.5C1.8,71.2,1.7,75,17,75c0,0,34.5,0,34.5,0c19.2,0,16-7.7,16-19.5L1.8,55.5z"/>
		<path class="st60" d="M1.8,55.3c0,15.8-0.1,19.6,15.2,19.6c0,0,34.5,0,34.5,0c19.3,0,16-7.9,16-19.6L1.8,55.3z"/>
		<path class="st61" d="M1.8,55.2c0,15.8,0,19.7,15.2,19.7c0,0,34.5,0,34.5,0c19.3,0,16-8,16-19.7L1.8,55.2z"/>
		<path class="st62" d="M1.8,55c0,15.9,0,19.8,15.2,19.8c0,0,34.5,0,34.5,0c19.3,0,16-8.1,16-19.8L1.8,55z"/>
		<path class="st63" d="M1.8,54.9c0,15.9,0,19.9,15.1,19.9c0,0,34.5,0,34.5,0c19.3,0,16-8.2,16-19.9L1.8,54.9z"/>
		<path class="st64" d="M1.8,54.7c0,16,0.1,19.9,15.1,19.9c0,0,34.5,0,34.5,0c19.3,0,16-8.3,16-19.9L1.8,54.7z"/>
		<path class="st65" d="M1.8,54.6c0,16,0.1,20,15.1,20c0,0,34.5,0,34.5,0c19.3,0,16-8.4,16-20L1.8,54.6z"/>
		<path class="st66" d="M1.9,54.4c0,16.1,0.1,20.1,15.1,20.1c0,0,34.5,0,34.5,0c19.3,0,16-8.5,16-20.1L1.9,54.4z"/>
		<path class="st67" d="M1.9,54.3c0,16.1,0.2,20.2,15.1,20.2c0,0,34.5,0,34.5,0c19.3,0,16-8.6,16-20.2L1.9,54.3z"/>
		<path class="st68" d="M1.9,54.1c0,16.2,0.2,20.3,15,20.3c0,0,34.5,0,34.5,0c19.4,0,16-8.7,16-20.3L1.9,54.1z"/>
		<path class="st69" d="M1.9,53.9c0,16.2,0.2,20.4,15,20.4c0,0,34.5,0,34.5,0c19.4,0,16-8.8,16-20.4L1.9,53.9z"/>
		<path class="st70" d="M1.9,53.8c0,16.3,0.3,20.5,15,20.5c0,0,34.5,0,34.5,0c19.4,0,16-8.9,16-20.5L1.9,53.8z"/>
		<path class="st71" d="M1.9,53.6c0,16.3,0.3,20.6,15,20.6c0,0,34.5,0,34.5,0c19.4,0,15.9-9.1,16-20.6L1.9,53.6z"/>
		<path class="st72" d="M1.9,53.5c0,16.4,0.3,20.7,15,20.7c0,0,34.5,0,34.5,0c19.4,0,15.9-9.2,16-20.7L1.9,53.5z"/>
		<path class="st73" d="M1.9,53.3c0,16.4,0.3,20.8,14.9,20.8c0,0,34.5,0,34.5,0c19.4,0,15.9-9.3,16-20.8L1.9,53.3z"/>
		<path class="st74" d="M1.9,53.2C2,69.6,2.3,74,16.8,74c0,0,34.5,0,34.5,0c19.4,0,15.9-9.4,16-20.9L1.9,53.2z"/>
		<path class="st75" d="M2,53c0,16.5,0.4,20.9,14.9,20.9c0,0,34.5,0,34.5,0c19.4,0,15.9-9.5,15.9-20.9L2,53z"/>
		<path class="st76" d="M2,52.8c0,16.6,0.4,21,14.9,21c0,0,34.5,0,34.5,0c19.5,0,15.9-9.6,15.9-21L2,52.8z"/>
		<path class="st77" d="M2,52.7c0,16.6,0.5,21.1,14.8,21.1c0,0,34.5,0,34.5,0c19.5,0,15.9-9.7,15.9-21.1L2,52.7z"/>
		<path class="st78" d="M2,52.5c0,16.7,0.5,21.2,14.8,21.2c0,0,34.5,0,34.5,0c19.5,0,15.9-9.8,15.9-21.2L2,52.5z"/>
		<path class="st79" d="M2,52.4c0,16.7,0.5,21.3,14.8,21.3c0,0,34.5,0,34.5,0c19.5,0,15.9-9.9,15.9-21.3L2,52.4z"/>
		<path class="st80" d="M2,52.2C2,69,2.6,73.6,16.8,73.6c0,0,34.5,0,34.5,0c19.5,0,15.9-10,15.9-21.4L2,52.2z"/>
		<path class="st81" d="M2,52.1c0,16.8,0.6,21.5,14.8,21.5c0,0,34.5,0,34.5,0c19.5,0,15.9-10.1,15.9-21.5L2,52.1z"/>
		<path class="st82" d="M2,51.9c0,16.9,0.6,21.6,14.7,21.6c0,0,34.5,0,34.5,0c19.5,0,15.9-10.3,15.9-21.6L2,51.9z"/>
		<path class="st83" d="M2,51.7c0,16.9,0.7,21.7,14.7,21.7c0,0,34.5,0,34.5,0c19.5,0,15.9-10.4,15.9-21.7L2,51.7z"/>
		<path class="st84" d="M2.1,51.6c0,17,0.7,21.8,14.7,21.8c0,0,34.5,0,34.5,0c19.6,0,15.9-10.5,15.9-21.8L2.1,51.6z"/>
		<path class="st85" d="M2.1,51.4c0,17,0.7,21.9,14.7,21.9c0,0,34.5,0,34.5,0c19.6,0,15.9-10.6,15.9-21.9L2.1,51.4z"/>
		<path class="st86" d="M2.1,51.3c0,17.1,0.8,21.9,14.7,21.9c0,0,34.5,0,34.5,0c19.6,0,15.9-10.7,15.9-21.9L2.1,51.3z"/>
		<path class="st87" d="M2.1,51.1c0,17.1,0.8,22,14.6,22c0,0,34.5,0,34.6,0c19.6,0,15.9-10.8,15.9-22L2.1,51.1z"/>
		<path class="st88" d="M2.1,51c0,17.2,0.8,22.1,14.6,22.1c0,0,34.5,0,34.6,0c19.6,0,15.9-10.9,15.9-22.1L2.1,51z"/>
		<path class="st89" d="M2.1,50.8C2.1,68,3,73,16.7,73c0,0,34.5,0,34.6,0c19.6,0,15.9-11,15.9-22.2L2.1,50.8z"/>
		<path class="st90" d="M2.1,50.6C2.1,67.9,3,73,16.7,73c0,0,34.5,0,34.6,0c19.6,0,15.9-11.1,15.9-22.3L2.1,50.6z"/>
		<path class="st91" d="M2.1,50.5c0,17.3,0.9,22.4,14.5,22.4c0,0,34.5,0,34.6,0c19.7,0,15.9-11.2,15.9-22.4L2.1,50.5z"/>
		<path class="st92" d="M2.1,50.3c0,17.4,1,22.5,14.5,22.5c0,0,34.5,0,34.6,0c19.7,0,15.9-11.4,15.9-22.5L2.1,50.3z"/>
		<path class="st93" d="M2.2,50.2c0,17.4,1,22.6,14.5,22.6c0,0,34.5,0,34.6,0c19.7,0,15.8-11.5,15.9-22.6L2.2,50.2z"/>
		<path class="st94" d="M2.2,50c0,17.5,1,22.7,14.5,22.7c0,0,34.5,0,34.6,0c19.7,0,15.8-11.6,15.9-22.7L2.2,50z"/>
		<path class="st95" d="M2.2,49.9c0,17.5,1.1,22.8,14.5,22.8c0,0,34.5,0,34.6,0c19.7,0,15.8-11.7,15.9-22.8L2.2,49.9z"/>
		<path class="st96" d="M2.2,49.7c0,17.6,1.1,22.9,14.4,22.9c0,0,34.5,0,34.6,0c19.7,0,15.8-11.8,15.9-22.9L2.2,49.7z"/>
		<path class="st97" d="M2.2,49.5c0,17.6,1.1,22.9,14.4,22.9c0,0,34.5,0,34.6,0C70.9,72.5,67,60.6,67,49.5L2.2,49.5z"/>
		<path class="st98" d="M2.2,49.4c0,17.7,1.1,23,14.4,23c0,0,34.5,0,34.6,0c19.7,0,15.8-12,15.8-23L2.2,49.4z"/>
		<path class="st99" d="M2.2,49.2c0,17.7,1.2,23.1,14.4,23.1c0,0,34.5,0,34.6,0C70.9,72.4,67,60.2,67,49.2L2.2,49.2z"/>
		<path class="st100" d="M2.2,49.1c0,17.8,1.2,23.2,14.4,23.2c0,0,34.5,0,34.6,0C70.9,72.3,67,60.1,67,49.1L2.2,49.1z"/>
		<path class="st101" d="M2.2,48.9c0,17.8,1.2,23.3,14.3,23.3c0,0,34.5,0,34.6,0C70.9,72.2,67,59.9,67,48.9L2.2,48.9z"/>
		<path class="st102" d="M2.3,48.8c0,17.8,1.3,23.4,14.3,23.4c0,0,34.6,0,34.6,0C70.9,72.2,67,59.7,67,48.8L2.3,48.8z"/>
		<path class="st103" d="M2.3,48.6c0,17.9,1.3,23.5,14.3,23.5c0,0,34.6,0,34.6,0C71,72.1,67,59.5,67,48.6L2.3,48.6z"/>
		<path class="st104" d="M2.3,48.4C2.3,66.4,3.6,72,16.5,72c0,0,34.6,0,34.6,0C71,72,66.9,59.4,67,48.4L2.3,48.4z"/>
		<path class="st105" d="M2.3,48.3c0,18,1.4,23.7,14.2,23.7c0,0,34.6,0,34.6,0C71,72,66.9,59.2,66.9,48.3L2.3,48.3z"/>
		<path class="st106" d="M2.3,48.1c0,18,1.4,23.8,14.2,23.8c0,0,34.6,0,34.6,0C71,71.9,66.9,59,66.9,48.1L2.3,48.1z"/>
		<path class="st107" d="M2.3,48c0,18.1,1.4,23.8,14.2,23.8c0,0,34.6,0,34.6,0c19.9,0,15.8-13,15.8-23.8L2.3,48z"/>
		<path class="st108" d="M2.3,47.8c0,18.1,1.5,23.9,14.2,23.9c0,0,34.6,0,34.6,0c19.9,0,15.8-13.1,15.8-23.9L2.3,47.8z"/>
		<path class="st109" d="M2.3,47.7c0,18.2,1.5,24,14.2,24c0,0,34.6,0,34.6,0c19.9,0,15.8-13.2,15.8-24L2.3,47.7z"/>
		<path class="st110" d="M2.3,47.5c0,18.2,1.5,24.1,14.1,24.1c0,0,34.6,0,34.6,0c19.9,0,15.8-13.3,15.8-24.1L2.3,47.5z"/>
		<path class="st111" d="M2.4,47.4c0,18.3,1.6,24.2,14.1,24.2c0,0,34.6,0,34.6,0c19.9,0,15.8-13.4,15.8-24.2L2.4,47.4z"/>
		<path class="st112" d="M2.4,47.2c0,18.3,1.6,24.3,14.1,24.3c0,0,34.6,0,34.6,0C71,71.5,66.8,58,66.9,47.2L2.4,47.2z"/>
		<path class="st113" d="M2.4,47c0,18.4,1.6,24.4,14.1,24.4c0,0,34.6,0,34.6,0C71,71.4,66.8,57.8,66.8,47L2.4,47z"/>
		<path class="st114" d="M2.4,46.9c0,18.4,1.7,24.5,14.1,24.5c0,0,34.6,0,34.6,0c19.9,0,15.8-13.8,15.8-24.5L2.4,46.9z"/>
		<path class="st115" d="M2.4,46.7c0,18.5,1.7,24.6,14,24.6c0,0,34.6,0,34.6,0c20,0,15.8-13.9,15.8-24.6L2.4,46.7z"/>
		<path class="st116" d="M2.4,46.6c0,18.5,1.7,24.7,14,24.7c0,0,34.6,0,34.6,0c20,0,15.7-14,15.8-24.7L2.4,46.6z"/>
		<path class="st117" d="M2.4,46.4c0,18.6,1.8,24.8,14,24.8c0,0,34.6,0,34.6,0c20,0,15.7-14.1,15.8-24.8L2.4,46.4z"/>
		<path class="st118" d="M2.4,46.3c0,18.6,1.8,24.8,14,24.8c0,0,34.6,0,34.6,0c20,0,15.7-14.2,15.7-24.8L2.4,46.3z"/>
		<path class="st119" d="M2.4,46.1c0,18.7,1.8,24.9,14,24.9c0,0,34.6,0,34.6,0c20,0,15.7-14.3,15.7-24.9L2.4,46.1z"/>
		<path class="st120" d="M2.5,45.9c0,18.7,1.9,25,13.9,25c0,0,34.6,0,34.6,0c20,0,15.7-14.4,15.7-25L2.5,45.9z"/>
		<path class="st121" d="M2.5,45.8c0,18.8,1.9,25.1,13.9,25.1c0,0,34.6,0,34.6,0c20,0,15.7-14.5,15.7-25.1L2.5,45.8z"/>
		<path class="st122" d="M2.5,45.6c0,18.8,1.9,25.2,13.9,25.2c0,0,34.6,0,34.6,0c20,0,15.7-14.6,15.7-25.2L2.5,45.6z"/>
		<path class="st123" d="M2.5,45.5c0,18.9,2,25.3,13.9,25.3c0,0,34.6,0,34.6,0c20.1,0,15.7-14.7,15.7-25.3L2.5,45.5z"/>
		<path class="st124" d="M2.5,45.3c0,18.9,2,25.4,13.8,25.4c0,0,34.6,0,34.6,0c20.1,0,15.7-14.9,15.7-25.4L2.5,45.3z"/>
		<path class="st125" d="M2.5,45.2c0,19,2,25.5,13.8,25.5c0,0,34.6,0,34.6,0c20.1,0,15.7-15,15.7-25.5L2.5,45.2z"/>
		<path class="st126" d="M2.5,45c0,19,2,25.6,13.8,25.6c0,0,34.6,0,34.6,0c20.1,0,15.7-15.1,15.7-25.6L2.5,45z"/>
		<path class="st127" d="M2.5,44.8c0,19.1,2.1,25.7,13.8,25.7c0,0,34.6,0,34.6,0c20.1,0,15.7-15.2,15.7-25.7L2.5,44.8z"/>
		<path class="st128" d="M2.5,44.7c0,19.1,2.1,25.8,13.8,25.8c0,0,34.6,0,34.7,0c20.1,0,15.7-15.3,15.7-25.8L2.5,44.7z"/>
		<path class="st129" d="M2.6,44.5c0,19.2,2.1,25.8,13.7,25.8c0,0,34.6,0,34.7,0c20.1,0,15.7-15.4,15.7-25.8L2.6,44.5z"/>
		<path class="st130" d="M2.6,44.4c0,19.2,2.2,25.9,13.7,25.9c0,0,34.6,0,34.7,0c20.2,0,15.7-15.5,15.7-25.9L2.6,44.4z"/>
		<path class="st131" d="M2.6,44.2c0,19.3,2.2,26,13.7,26c0,0,34.6,0,34.7,0c20.2,0,15.7-15.6,15.7-26L2.6,44.2z"/>
		<path class="st132" d="M2.6,44.1c0,19.3,2.2,26.1,13.7,26.1c0,0,34.6,0,34.7,0c20.2,0,15.7-15.7,15.7-26.1L2.6,44.1z"/>
		<path class="st133" d="M2.6,43.9c0,19.4,2.3,26.2,13.7,26.2c0,0,34.6,0,34.7,0c20.2,0,15.7-15.8,15.7-26.2L2.6,43.9z"/>
		<path class="st134" d="M2.6,43.7C2.6,63.2,4.9,70,16.2,70c0,0,34.6,0,34.7,0c20.2,0,15.7-15.9,15.7-26.3L2.6,43.7z"/>
		<path class="st135" d="M2.6,43.6C2.6,63.1,5,70,16.2,70c0,0,34.6,0,34.7,0c20.2,0,15.7-16.1,15.7-26.4L2.6,43.6z"/>
		<path class="st136" d="M2.6,43.4c0,19.5,2.4,26.5,13.6,26.5c0,0,34.6,0,34.7,0c20.2,0,15.7-16.2,15.7-26.5L2.6,43.4z"/>
		<path class="st137" d="M2.6,43.3c0,19.6,2.4,26.6,13.6,26.6c0,0,34.6,0,34.7,0c20.2,0,15.7-16.3,15.7-26.6L2.6,43.3z"/>
		<path class="st138" d="M2.7,43.1c0,19.6,2.4,26.7,13.5,26.7c0,0,34.6,0,34.7,0c20.3,0,15.6-16.4,15.7-26.7L2.7,43.1z"/>
		<path class="st139" d="M2.7,43c0,19.7,2.5,26.8,13.5,26.8c0,0,34.6,0,34.7,0c20.3,0,15.6-16.5,15.6-26.8L2.7,43z"/>
		<path class="st140" d="M2.7,42.8c0,19.7,2.5,26.8,13.5,26.8c0,0,34.6,0,34.7,0c20.3,0,15.6-16.6,15.6-26.8L2.7,42.8z"/>
		<path class="st141" d="M2.7,42.6c0,19.8,2.5,26.9,13.5,26.9c0,0,34.6,0,34.7,0c20.3,0,15.6-16.7,15.6-26.9L2.7,42.6z"/>
		<path class="st142" d="M2.7,42.5c0,19.8,2.6,27,13.5,27c0,0,34.6,0,34.7,0c20.3,0,15.6-16.8,15.6-27L2.7,42.5z"/>
		<path class="st143" d="M2.7,42.3c0,19.9,2.6,27.1,13.4,27.1c0,0,34.6,0,34.7,0c20.3,0,15.6-16.9,15.6-27.1H2.7z"/>
		<path class="st144" d="M2.7,42.2c0,19.9,2.6,27.2,13.4,27.2c0,0,34.6,0,34.7,0c20.3,0,15.6-17,15.6-27.2H2.7z"/>
		<path class="st145" d="M2.7,42c0,20,2.7,27.3,13.4,27.3c0,0,34.6,0,34.7,0c20.3,0,15.6-17.1,15.6-27.3H2.7z"/>
		<path class="st146" d="M2.7,41.9c0,20,2.7,27.4,13.4,27.4c0.1,0,34.6,0,34.7,0c20.4,0,15.6-17.3,15.6-27.4H2.7z"/>
		<path class="st147" d="M2.8,41.7c0,20.1,2.7,27.5,13.4,27.5c0.1,0,34.6,0,34.7,0c20.4,0,15.6-17.4,15.6-27.5H2.8z"/>
		<path class="st148" d="M2.8,41.5c0,20.1,2.8,27.6,13.3,27.6c0.1,0,34.6,0,34.7,0c20.4,0,15.6-17.5,15.6-27.6H2.8z"/>
		<path class="st149" d="M2.8,41.4c0,20.2,2.8,27.7,13.3,27.7c0.1,0,34.7,0,34.7,0c20.4,0,15.6-17.6,15.6-27.7H2.8z"/>
		<path class="st150" d="M2.8,41.2C2.8,61.4,5.6,69,16.1,69c0.1,0,34.7,0,34.7,0c20.4,0,15.6-17.7,15.6-27.8H2.8z"/>
		<path class="st151" d="M2.8,41.1c0,20.3,2.8,27.8,13.3,27.8c0.1,0,34.7,0,34.7,0c20.4,0,15.6-17.8,15.6-27.8H2.8z"/>
	</g>
	<linearGradient id="SVGID_1_" gradientUnits="userSpaceOnUse" x1="34.6753" y1="67.7614" x2="34.6753" y2="0.636">
		<stop  offset="0" style="stop-color:#0CE8B0"/>
		<stop  offset="0.1412" style="stop-color:#0DDBA4"/>
		<stop  offset="0.4723" style="stop-color:#0FC08C"/>
		<stop  offset="0.7689" style="stop-color:#10B07D"/>
		<stop  offset="1" style="stop-color:#11AB78"/>
	</linearGradient>
	<path class="st152" d="M61.6,67.8H7.7c-3.7,0-6.6-3-6.6-6.6V7.3c0-3.7,3-6.6,6.6-6.6h53.9c3.7,0,6.6,3,6.6,6.6v53.9
		C68.2,64.8,65.3,67.8,61.6,67.8z"/>
</g>
<g>
	<path class="st153" d="M39.4,19.1H20.2c-1.1,0-1.9-0.9-1.9-1.9v-5.9c0-1.1,0.9-1.9,1.9-1.9h19.2c1.1,0,1.9,0.9,1.9,1.9v5.9
		C41.3,18.2,40.5,19.1,39.4,19.1z"/>
	<g>
		<path class="st153" d="M44.7,42.2v-9.9c0-0.4-0.1-0.8-0.3-1.1L39,23.3c-0.2-0.3-0.3-0.7-0.3-1.1v-3.1"/>
		<path class="st153" d="M20.8,19.1v3.1c0,0.4-0.1,0.8-0.3,1.1l-5.3,7.9c-0.2,0.3-0.3,0.7-0.3,1.1v19.9c0,1.1,0.9,2,2,2h17.5"/>
	</g>
	<line class="st153" x1="44.7" y1="32.8" x2="14.9" y2="32.8"/>
	<line class="st153" x1="35.4" y1="49.1" x2="14.9" y2="49.1"/>
	<line class="st153" x1="29.8" y1="37.2" x2="29.8" y2="45.5"/>
	<line class="st153" x1="25.7" y1="41.4" x2="33.9" y2="41.4"/>
	<line class="st153" x1="38.6" y1="22.8" x2="20.9" y2="22.8"/>
	<path class="st153" d="M37.2,58.8l-3-4.9c-1.3-2.1-0.6-4.8,1.4-6.1l16.9-10.4c2.1-1.3,4.8-0.6,6.1,1.4l3,4.9
		c1.3,2.1,0.6,4.8-1.4,6.1L43.3,60.2C41.2,61.5,38.5,60.8,37.2,58.8z"/>
	<line class="st153" x1="51.7" y1="55" x2="44.3" y2="42.6"/>
</g>
</svg>
