<?xml version="1.0" encoding="utf-8"?>
<!-- Generator: Adobe Illustrator 26.5.0, SVG Export Plug-In . SVG Version: 6.00 Build 0)  -->
<svg version="1.1" id="Capa_1" xmlns="http://www.w3.org/2000/svg" xmlns:xlink="http://www.w3.org/1999/xlink" x="0px" y="0px"
	 viewBox="0 0 40 38.5" style="enable-background:new 0 0 40 38.5;" xml:space="preserve">
<style type="text/css">
	.st0{fill:#A41931;}
</style>
<g>
	<g>
		<path class="st0" d="M23.9,34.8H10.6c-0.4,0-0.7-0.3-0.7-0.7c0-0.4,0.3-0.7,0.7-0.7h13.3c0.8,0,1.4-0.6,1.4-1.4V10.2H2.6v21.9
			c0,0.8,0.6,1.4,1.4,1.4h1.3c0.4,0,0.7,0.3,0.7,0.7c0,0.4-0.3,0.7-0.7,0.7H4c-1.5,0-2.7-1.2-2.7-2.7V9.5c0-0.4,0.3-0.7,0.7-0.7
			h23.9c0.4,0,0.7,0.3,0.7,0.7v22.6C26.6,33.6,25.4,34.8,23.9,34.8z"/>
	</g>
	<g>
		<path class="st0" d="M15.8,19.1c-0.4,0-0.7-0.1-1.1-0.2c-0.5-0.2-1-0.2-1.5,0c-1.2,0.4-2.5,0.1-3.3-0.8c-0.1-0.1-0.2-0.3-0.2-0.5
			V9.5c0-0.4,0.3-0.7,0.7-0.7h7.2c0.4,0,0.7,0.3,0.7,0.7v8.2c0,0.2-0.1,0.4-0.2,0.5C17.4,18.8,16.6,19.1,15.8,19.1z M13.9,17.4
			c0.4,0,0.8,0.1,1.2,0.2c0.6,0.2,1.2,0.1,1.7-0.3v-7.2H11v7.2c0.5,0.4,1.1,0.5,1.7,0.3C13.1,17.5,13.5,17.4,13.9,17.4z"/>
	</g>
	<g>
		<path class="st0" d="M5.7,30.6c-1.1,0-1.9-0.9-1.9-1.9c0-1.1,0.9-1.9,1.9-1.9s1.9,0.9,1.9,1.9C7.7,29.7,6.8,30.6,5.7,30.6z
			 M5.7,28.1c-0.3,0-0.6,0.2-0.6,0.6c0,0.3,0.2,0.6,0.6,0.6c0.3,0,0.6-0.2,0.6-0.6C6.3,28.3,6,28.1,5.7,28.1z"/>
	</g>
	<g>
		<path class="st0" d="M10,30.6c-1.1,0-1.9-0.9-1.9-1.9c0-1.1,0.9-1.9,1.9-1.9s1.9,0.9,1.9,1.9C11.9,29.7,11,30.6,10,30.6z M10,28.1
			c-0.3,0-0.6,0.2-0.6,0.6c0,0.3,0.2,0.6,0.6,0.6c0.3,0,0.6-0.2,0.6-0.6C10.5,28.3,10.3,28.1,10,28.1z"/>
	</g>
	<g>
		<path class="st0" d="M35.6,34.8h-1.4c-0.4,0-0.7-0.3-0.7-0.7c0-0.4,0.3-0.7,0.7-0.7h1.4c1.3,0,2.4-1.1,2.4-2.4v-4.2l-6.7-7.1h-4.7
			v13.7H29c0.4,0,0.7,0.3,0.7,0.7c0,0.4-0.3,0.7-0.7,0.7h-3.1c-0.4,0-0.7-0.3-0.7-0.7V19c0-0.4,0.3-0.7,0.7-0.7h5.7
			c0.2,0,0.4,0.1,0.5,0.2l7.1,7.6c0.1,0.1,0.2,0.3,0.2,0.5V31C39.4,33.1,37.7,34.8,35.6,34.8z"/>
	</g>
	<g>
		<path class="st0" d="M37,29.7h-1.2c-0.4,0-0.7-0.3-0.7-0.7c0-0.4,0.3-0.7,0.7-0.7H37c0.4,0,0.7,0.3,0.7,0.7
			C37.7,29.4,37.4,29.7,37,29.7z"/>
	</g>
	<g>
		<path class="st0" d="M38.7,27.3h-8.5c-1.4,0-2.5-1.1-2.5-2.5v-2.2c0-0.4,0.3-0.7,0.7-0.7c0.4,0,0.7,0.3,0.7,0.7v2.2
			c0,0.6,0.5,1.1,1.1,1.1h8.5c0.4,0,0.7,0.3,0.7,0.7C39.4,27,39.1,27.3,38.7,27.3z"/>
	</g>
	<g>
		<path class="st0" d="M31.6,38.4c-1.9,0-3.4-1.5-3.4-3.4c0-1.9,1.5-3.4,3.4-3.4c1.9,0,3.4,1.5,3.4,3.4
			C35.1,36.9,33.5,38.4,31.6,38.4z M31.6,32.9c-1.1,0-2.1,0.9-2.1,2.1s0.9,2.1,2.1,2.1s2.1-0.9,2.1-2.1S32.8,32.9,31.6,32.9z"/>
	</g>
	<g>
		<path class="st0" d="M7.9,38.4c-1.9,0-3.4-1.5-3.4-3.4c0-1.9,1.5-3.4,3.4-3.4c1.9,0,3.4,1.5,3.4,3.4C11.4,36.9,9.8,38.4,7.9,38.4z
			 M7.9,32.9c-1.1,0-2.1,0.9-2.1,2.1S6.8,37,7.9,37S10,36.1,10,35S9.1,32.9,7.9,32.9z"/>
	</g>
</g>
</svg>
