<?xml version="1.0" encoding="utf-8"?>
<!-- Generator: Adobe Illustrator 26.5.0, SVG Export Plug-In . SVG Version: 6.00 Build 0)  -->
<svg version="1.1" id="Capa_1" xmlns="http://www.w3.org/2000/svg" xmlns:xlink="http://www.w3.org/1999/xlink" x="0px" y="0px"
	 viewBox="0 0 40 38.5" style="enable-background:new 0 0 40 38.5;" xml:space="preserve">
<style type="text/css">
	.st0{fill:#A41931;}
</style>
<g id="SuJFVI_00000137839482856559677080000008556857212040645271_">
	<g>
		<path class="st0" d="M14.4,8.9c0.4,0.1,0.8,0.1,1.2,0.2c1.1,0.2,2.1,0.5,3.1,1c1.4,0.6,2.8,1,4.3,1.1c1.6,0.1,3.2-0.4,4.7-1
			c0.1,0,0.1-0.1,0.2-0.1c0.5-0.2,0.8,0.1,0.8,0.6c0,1.1,0,2.2,0,3.2c0,0.1,0,0.2,0,0.3c0.4-0.1,0.9-0.3,1.3-0.5c0.6-0.3,1,0,1,0.7
			c0,1.2,0,2.3,0,3.5c0,0.2,0,0.2,0.3,0.2c0.8-0.2,1.5-0.5,2.3-0.8c0.5-0.2,0.9,0,0.9,0.6c0,1.4,0,2.7,0,4.1c0,0.4-0.2,0.7-0.6,0.7
			c-0.3,0-0.6-0.3-0.6-0.7c0-1.1,0-2.2,0-3.3c-0.2,0-0.4,0.1-0.6,0.2c-2.8,1-5.5,0.7-8.2-0.5c-1.5-0.7-3-1.1-4.6-1.1
			c-1.3,0-2.5,0.4-3.7,0.9c-0.1,0.1-0.1,0.2-0.1,0.3c0,1.1,0,2.2,0,3.3c0,2.5,0,5,0,7.4c0,0.1,0,0.2,0,0.3c0.5-0.2,1-0.3,1.5-0.5
			c2-0.6,4-0.4,6,0.3c0.9,0.3,1.8,0.8,2.7,1.1c2.3,0.8,4.5,0.6,6.7-0.3c0.1-0.1,0.2-0.1,0.2-0.3c0-0.8,0-1.6,0-2.5
			c0-0.4,0.2-0.7,0.6-0.7c0.3,0,0.6,0.3,0.6,0.7c0,1,0,2,0,2.9c0,0.3-0.1,0.5-0.4,0.6c-1.6,0.7-3.3,1.2-5.1,1.2
			c-1.6-0.1-3-0.5-4.4-1.2c-1.4-0.7-2.9-1.1-4.6-1.1c-1.3,0-2.5,0.4-3.7,0.9c-0.2,0.1-0.1,0.2-0.1,0.3c0,2.1,0,4.2,0,6.4
			c0,0.1,0,0.2,0,0.3c0,0.3-0.3,0.5-0.6,0.5c-0.3,0-0.5-0.2-0.6-0.5c0-0.1,0-0.2,0-0.3c0-3.5,0-7,0-10.4c0-0.3-0.1-0.3-0.3-0.2
			c-0.6,0.1-1.1,0.3-1.7,0.6c-0.2,0.1-0.3,0.2-0.3,0.4c0,3.2,0,6.5,0,9.7c0,0.1,0,0.2,0,0.3c0,0.3-0.3,0.5-0.6,0.5
			c-0.3,0-0.5-0.2-0.6-0.5c0-0.1,0-0.2,0-0.3c0-4.6,0-9.2,0-13.9c0-0.1,0-0.2,0-0.3c-0.7,0.2-1.5,0.4-2.2,0.7
			c-0.2,0.1-0.1,0.2-0.1,0.3c0,1.1,0,2.1,0,3.2c0,3.3,0,6.7,0,10c0,0.1,0,0.2,0,0.3c0,0.3-0.3,0.5-0.6,0.5c-0.3,0-0.5-0.2-0.6-0.5
			c0-0.1,0-0.2,0-0.3c0-9.2,0-18.4,0-27.7c0-0.3,0.1-0.6,0.4-0.8c0.1,0,0.2,0,0.3,0c0.3,0.2,0.5,0.5,0.4,0.9
			c0.8-0.3,1.6-0.5,2.3-0.7c0.3-0.1,0.7-0.1,1-0.2C13.2,8.9,13.8,8.9,14.4,8.9z M27.5,11.5c-0.1,0-0.2,0.1-0.3,0.1
			c-1.2,0.4-2.5,0.7-3.8,0.7c-1.8,0-3.6-0.4-5.2-1.2c-1.3-0.6-2.7-1-4.2-1.1c-1.6-0.1-3,0.3-4.5,0.8c-0.2,0.1-0.3,0.2-0.3,0.4
			c0,3.7,0,7.4,0,11.1c0,0.1,0,0.2,0,0.3c0.7-0.2,1.3-0.4,2-0.6c0.2,0,0.3-0.1,0.3-0.3c0-2.8,0-5.6,0-8.4c0-0.1,0-0.2,0-0.3
			c0-0.3,0.3-0.5,0.6-0.5c0.3,0,0.5,0.2,0.6,0.5c0,0.1,0,0.2,0,0.3c0.1,0,0.2,0,0.3-0.1c1.1-0.4,2.3-0.7,3.5-0.7
			c1.4,0,2.8,0.3,4.2,0.8c0.8,0.3,1.6,0.7,2.4,1c1.4,0.4,2.8,0.6,4.3,0.3c0.1,0,0.2,0,0.2-0.2C27.5,13.5,27.5,12.5,27.5,11.5z
			 M16.1,16.9c0.2-0.1,0.4-0.2,0.7-0.2c1.5-0.5,3.1-0.8,4.7-0.5c1.3,0.2,2.5,0.6,3.6,1.2c1.4,0.6,2.9,1,4.4,1c0.2,0,0.3-0.1,0.3-0.3
			c0-0.9,0-1.8,0-2.8c0-0.2,0-0.2-0.2-0.2c-1.1,0.4-2.2,0.7-3.4,0.7c-1.8,0.1-3.5-0.4-5.1-1.2c-1.2-0.6-2.5-1-3.9-1.1
			c-1.5-0.1-2.9,0.3-4.2,0.8c-0.2,0.1-0.2,0.2-0.2,0.4c0,3.6,0,7.3,0,10.9c0,0.1,0,0.2,0,0.3c0.6-0.2,1.3-0.5,2-0.6
			c0.2,0,0.3-0.1,0.3-0.3c0-2.7,0-5.5,0-8.2c0-0.1,0-0.2,0-0.3c0-0.3,0.3-0.5,0.6-0.5c0.3,0,0.5,0.2,0.6,0.5
			C16.1,16.7,16.1,16.8,16.1,16.9z"/>
		<path class="st0" d="M12.6,8.9c-0.3,0.1-0.7,0.1-1,0.2c-0.8,0.2-1.6,0.4-2.3,0.7c0.1-0.4,0-0.7-0.4-0.9
			C10.1,8.9,11.4,8.9,12.6,8.9z"/>
		<path class="st0" d="M25.2,20.7c0,0.3-0.3,0.6-0.6,0.6c-0.3,0-0.6-0.3-0.6-0.6c0-0.3,0.3-0.6,0.6-0.6C25,20.1,25.2,20.4,25.2,20.7
			z"/>
		<path class="st0" d="M21.8,24.1c0,0.3-0.3,0.6-0.6,0.6c-0.3,0-0.6-0.3-0.6-0.6c0-0.3,0.3-0.6,0.6-0.6
			C21.6,23.5,21.8,23.8,21.8,24.1z"/>
		<path class="st0" d="M28.7,24.1c0,0.3-0.3,0.6-0.6,0.6c-0.3,0-0.6-0.3-0.6-0.6c0-0.3,0.3-0.6,0.6-0.6
			C28.4,23.5,28.7,23.8,28.7,24.1z"/>
		<path class="st0" d="M33.8,25.2c-0.3,0-0.6-0.3-0.6-0.6c0-0.3,0.3-0.5,0.6-0.5c0.3,0,0.6,0.3,0.6,0.6C34.3,25,34.1,25.2,33.8,25.2
			z"/>
		<path class="st0" d="M24.7,26.9c0.3,0,0.6,0.3,0.6,0.6c0,0.3-0.3,0.6-0.6,0.6c-0.3,0-0.6-0.3-0.6-0.6
			C24.1,27.2,24.4,26.9,24.7,26.9z"/>
		<path class="st0" d="M27.7,26.5c0,0.3-0.3,0.6-0.6,0.6c-0.3,0-0.6-0.3-0.6-0.6c0-0.3,0.3-0.6,0.6-0.6
			C27.4,25.9,27.7,26.2,27.7,26.5z"/>
		<path class="st0" d="M21.7,21.7c0-0.3,0.3-0.6,0.6-0.6c0.3,0,0.6,0.3,0.6,0.6c0,0.3-0.3,0.6-0.6,0.6C21.9,22.2,21.7,22,21.7,21.7z
			"/>
		<path class="st0" d="M22.2,27.1c-0.3,0-0.6-0.2-0.6-0.6c0-0.3,0.3-0.6,0.6-0.6c0.3,0,0.6,0.3,0.6,0.6
			C22.8,26.8,22.6,27.1,22.2,27.1z"/>
		<path class="st0" d="M27.7,21.7c0,0.3-0.2,0.6-0.6,0.6c-0.3,0-0.6-0.3-0.6-0.6c0-0.3,0.3-0.6,0.6-0.6
			C27.4,21.1,27.7,21.4,27.7,21.7z"/>
	</g>
</g>
</svg>
